<svg width="128" height="48" viewBox="0 0 128 48" fill="none" xmlns="http://www.w3.org/2000/svg">
<path d="M9.036 34.616C10.668 34.616 11.856 34.34 12.6 33.788C13.344 33.236 13.716 32.456 13.716 31.448C13.716 30.848 13.584 30.332 13.32 29.9C13.08 29.468 12.72 29.084 12.24 28.748C11.784 28.388 11.22 28.064 10.548 27.776C9.876 27.464 9.108 27.164 8.244 26.876C7.38 26.564 6.54 26.228 5.724 25.868C4.932 25.484 4.224 25.016 3.6 24.464C3 23.912 2.508 23.252 2.124 22.484C1.764 21.716 1.584 20.792 1.584 19.712C1.584 17.456 2.364 15.692 3.924 14.42C5.484 13.124 7.608 12.476 10.296 12.476C11.856 12.476 13.236 12.656 14.436 13.016C15.66 13.352 16.62 13.724 17.316 14.132L15.912 17.804C15.096 17.348 14.196 17 13.212 16.76C12.252 16.52 11.256 16.4 10.224 16.4C9 16.4 8.04 16.652 7.344 17.156C6.672 17.66 6.336 18.368 6.336 19.28C6.336 19.832 6.444 20.312 6.66 20.72C6.9 21.104 7.224 21.452 7.632 21.764C8.064 22.076 8.556 22.364 9.108 22.628C9.684 22.892 10.308 23.144 10.98 23.384C12.156 23.816 13.2 24.26 14.112 24.716C15.048 25.148 15.828 25.676 16.452 26.3C17.1 26.9 17.592 27.62 17.928 28.46C18.264 29.276 18.432 30.272 18.432 31.448C18.432 33.704 17.628 35.456 16.02 36.704C14.436 37.928 12.108 38.54 9.036 38.54C8.004 38.54 7.056 38.468 6.192 38.324C5.352 38.204 4.596 38.048 3.924 37.856C3.276 37.664 2.712 37.472 2.232 37.28C1.752 37.064 1.368 36.872 1.08 36.704L2.412 32.996C3.06 33.356 3.936 33.716 5.04 34.076C6.144 34.436 7.476 34.616 9.036 34.616ZM39.2414 28.568C39.2414 30.056 39.0254 31.412 38.5934 32.636C38.1614 33.86 37.5494 34.904 36.7574 35.768C35.9654 36.632 35.0054 37.304 33.8774 37.784C32.7734 38.264 31.5494 38.504 30.2054 38.504C28.8614 38.504 27.6374 38.264 26.5334 37.784C25.4294 37.304 24.4814 36.632 23.6894 35.768C22.8974 34.904 22.2734 33.86 21.8174 32.636C21.3854 31.412 21.1694 30.056 21.1694 28.568C21.1694 27.08 21.3854 25.736 21.8174 24.536C22.2734 23.312 22.8974 22.268 23.6894 21.404C24.5054 20.54 25.4654 19.88 26.5694 19.424C27.6734 18.944 28.8854 18.704 30.2054 18.704C31.5254 18.704 32.7374 18.944 33.8414 19.424C34.9694 19.88 35.9294 20.54 36.7214 21.404C37.5134 22.268 38.1254 23.312 38.5574 24.536C39.0134 25.736 39.2414 27.08 39.2414 28.568ZM34.7774 28.568C34.7774 26.696 34.3694 25.22 33.5534 24.14C32.7614 23.036 31.6454 22.484 30.2054 22.484C28.7654 22.484 27.6374 23.036 26.8214 24.14C26.0294 25.22 25.6334 26.696 25.6334 28.568C25.6334 30.464 26.0294 31.964 26.8214 33.068C27.6374 34.172 28.7654 34.724 30.2054 34.724C31.6454 34.724 32.7614 34.172 33.5534 33.068C34.3694 31.964 34.7774 30.464 34.7774 28.568ZM51.397 10.064C52.405 10.064 53.293 10.16 54.061 10.352C54.829 10.52 55.405 10.676 55.789 10.82L54.961 14.42C54.553 14.228 54.073 14.072 53.521 13.952C52.993 13.832 52.417 13.772 51.793 13.772C51.097 13.772 50.509 13.88 50.029 14.096C49.549 14.288 49.165 14.564 48.877 14.924C48.589 15.284 48.385 15.728 48.265 16.256C48.145 16.76 48.085 17.312 48.085 17.912V19.172H54.925V22.808H48.085V38H43.729V17.84C43.729 15.416 44.365 13.52 45.637 12.152C46.909 10.76 48.829 10.064 51.397 10.064ZM57.9271 14.204L62.2831 13.484V19.172H68.9791V22.808H62.2831V30.476C62.2831 31.988 62.5231 33.068 63.0031 33.716C63.4831 34.364 64.2991 34.688 65.4511 34.688C66.2431 34.688 66.9391 34.604 67.5391 34.436C68.1631 34.268 68.6551 34.112 69.0151 33.968L69.7351 37.424C69.2311 37.64 68.5711 37.856 67.7551 38.072C66.9391 38.312 65.9791 38.432 64.8751 38.432C63.5311 38.432 62.4031 38.252 61.4911 37.892C60.6031 37.532 59.8951 37.016 59.3671 36.344C58.8391 35.648 58.4671 34.82 58.2511 33.86C58.0351 32.876 57.9271 31.76 57.9271 30.512V14.204ZM80.462 12.8C84.086 12.8 86.858 13.46 88.778 14.78C90.722 16.1 91.694 18.164 91.694 20.972C91.694 22.436 91.43 23.696 90.902 24.752C90.398 25.784 89.654 26.636 88.67 27.308C87.686 27.956 86.486 28.436 85.07 28.748C83.654 29.06 82.034 29.216 80.21 29.216H77.942V38H73.406V13.412C74.462 13.172 75.626 13.016 76.898 12.944C78.194 12.848 79.382 12.8 80.462 12.8ZM80.786 16.724C79.634 16.724 78.686 16.76 77.942 16.832V25.328H80.138C82.322 25.328 84.002 25.028 85.178 24.428C86.354 23.804 86.942 22.64 86.942 20.936C86.942 20.12 86.786 19.436 86.474 18.884C86.162 18.332 85.73 17.9 85.178 17.588C84.626 17.276 83.966 17.06 83.198 16.94C82.454 16.796 81.65 16.724 80.786 16.724ZM93.5561 28.676C93.5561 27.02 93.7961 25.568 94.2761 24.32C94.7801 23.072 95.4401 22.04 96.2561 21.224C97.0721 20.384 98.0081 19.76 99.0641 19.352C100.12 18.92 101.2 18.704 102.304 18.704C104.896 18.704 106.912 19.508 108.352 21.116C109.816 22.724 110.548 25.124 110.548 28.316C110.548 28.556 110.536 28.832 110.512 29.144C110.512 29.432 110.5 29.696 110.476 29.936H98.0561C98.1761 31.448 98.7041 32.624 99.6401 33.464C100.6 34.28 101.98 34.688 103.78 34.688C104.836 34.688 105.796 34.592 106.66 34.4C107.548 34.208 108.244 34.004 108.748 33.788L109.324 37.352C109.084 37.472 108.748 37.604 108.316 37.748C107.908 37.868 107.428 37.976 106.876 38.072C106.348 38.192 105.772 38.288 105.148 38.36C104.524 38.432 103.888 38.468 103.24 38.468C101.584 38.468 100.144 38.228 98.9201 37.748C97.6961 37.244 96.6881 36.56 95.8961 35.696C95.1041 34.808 94.5161 33.776 94.1321 32.6C93.7481 31.4 93.5561 30.092 93.5561 28.676ZM106.192 26.732C106.192 26.132 106.108 25.568 105.94 25.04C105.772 24.488 105.52 24.02 105.184 23.636C104.872 23.228 104.476 22.916 103.996 22.7C103.54 22.46 102.988 22.34 102.34 22.34C101.668 22.34 101.08 22.472 100.576 22.736C100.072 22.976 99.6401 23.3 99.2801 23.708C98.9441 24.116 98.6801 24.584 98.4881 25.112C98.2961 25.64 98.1641 26.18 98.0921 26.732H106.192ZM114.951 14.204L119.307 13.484V19.172H126.003V22.808H119.307V30.476C119.307 31.988 119.547 33.068 120.027 33.716C120.507 34.364 121.323 34.688 122.475 34.688C123.267 34.688 123.963 34.604 124.563 34.436C125.187 34.268 125.679 34.112 126.039 33.968L126.759 37.424C126.255 37.64 125.595 37.856 124.779 38.072C123.963 38.312 123.003 38.432 121.899 38.432C120.555 38.432 119.427 38.252 118.515 37.892C117.627 37.532 116.919 37.016 116.391 36.344C115.863 35.648 115.491 34.82 115.275 33.86C115.059 32.876 114.951 31.76 114.951 30.512V14.204Z" fill="white"/>
</svg>
